<?xml version="1.0" encoding="UTF-8" standalone="no"?>
<svg
   xmlns="http://www.w3.org/2000/svg"
   width="250"
   height="250"
   viewBox="0 0 66.145833 66.145833"
   version="1.1">
  <g style="display:inline">
    <path
       style="fill:currentColor;stroke-width:0.99999988"
       d="m 30.082699,43.72178 v -7.661549 h -2.540878 -2.540876 v 1.739129 1.739119 h 0.81671 0.816711 v 5.92243 5.922443 h 1.724167 1.724167 z m 5.745,-2.085913 c -0.918736,-0.540141 -1.020391,-1.969276 -0.183964,-2.586277 0.376982,-0.278077 1.115247,-0.335707 1.551755,-0.121124 0.936981,0.460595 1.059128,1.97816 0.209658,2.604763 -0.382442,0.282107 -1.183524,0.334232 -1.577449,0.102638 z m -0.07341,6.494496 c -1.027796,-0.579903 -1.354157,-1.849444 -0.715985,-2.785201 0.364875,-0.535009 0.849928,-0.777737 1.549925,-0.775589 0.475443,0.0011 0.6207,0.04478 0.94586,0.282008 1.037988,0.757375 1.063573,2.259095 0.05268,3.092292 -0.294328,0.242592 -0.435242,0.288792 -0.952829,0.312392 -0.431939,0.01966 -0.686065,-0.01661 -0.879654,-0.125902 z m 2.529722,3.306853 c 2.095558,-0.728729 3.454625,-2.519528 3.572384,-4.707206 0.07246,-1.346232 -0.240945,-2.420603 -1.008798,-3.45815 l -0.332972,-0.44993 0.229823,-0.40626 c 0.34532,-0.610415 0.52693,-1.339391 0.529448,-2.125134 0.0065,-2.034854 -1.401111,-3.799879 -3.489714,-4.375753 -0.629568,-0.173593 -1.893066,-0.172068 -2.528308,0.003 -2.039399,0.562197 -3.463043,2.336469 -3.47085,4.325699 -0.0031,0.775087 0.121791,1.304459 0.482303,2.045281 l 0.263359,0.541172 -0.330478,0.445902 c -0.664236,0.896222 -1.025772,1.997137 -1.027493,3.128835 -0.0056,3.662515 3.637405,6.240542 7.111296,5.032494 z m 2.143673,3.283363 V 53.4515 h -6.896663 -6.89666 v 1.269079 1.269101 h 6.89666 6.896663 z m -16.587747,1.241464 -9.191649,-9.522331 1.105279,-0.114488 c 2.184868,-0.226295 3.894711,-1.062651 5.380593,-2.631872 1.461166,-1.54311 1.868005,-2.541454 3.091441,-7.586117 0.426335,-1.757932 1.077161,-4.359566 1.446281,-5.781425 0.36912,-1.421848 1.020462,-3.938883 1.447425,-5.593411 2.865972,-11.105896 3.791603,-14.661325 3.826347,-14.697311 0.02174,-0.02258 0.295883,0.03637 0.60918,0.130852 0.971556,0.293055 2.590348,0.209578 3.518864,-0.1814914 0.112016,-0.04712 0.729685,2.2519864 3.488597,12.9857304 1.843864,7.17367 3.610979,14.058324 3.926925,15.29921 0.780927,3.067109 1.206941,3.980401 2.515225,5.392151 1.474354,1.590957 3.133606,2.413967 5.383143,2.670128 l 1.021464,0.116313 -9.188732,9.518208 -9.188732,9.518186 z" />
    <path
       style="fill:currentColor;stroke-width:0.99999988"
       d="m 14.746696,44.355031 c -1.241255,-0.07538 -2.62957,-0.606788 -3.544614,-1.35679 C 10.554467,42.467443 1.3532143,32.837085 1.1278351,32.454191 0.86043788,31.99991 0.89024578,31.264012 1.1910439,30.893688 c 0.4309132,-0.530515 1.029792,-0.702491 1.6393897,-0.470772 0.1405016,0.05338 1.2211401,1.12156 2.4014191,2.373668 l 2.1459605,2.276572 0.2378543,-0.229606 c 0.1308184,-0.126275 0.2268596,-0.260581 0.2134228,-0.298454 -0.013434,-0.03783 -1.3841322,-1.488794 -3.045992,-3.224265 -2.9413768,-3.071666 -3.2881574,-3.496657 -3.2832614,-4.02372 0.0036,-0.383872 0.3392568,-1.002646 0.6506366,-1.19932 0.3210338,-0.202763 0.9085402,-0.249854 1.2820166,-0.102744 0.122262,0.0482 1.6132592,1.539336 3.3133262,3.313737 L 9.8368477,32.53497 10.067599,32.298762 10.298351,32.062543 6.7752905,28.350465 C 4.8376081,26.308827 3.2045949,24.546 3.1463743,24.433058 3.0881563,24.320125 3.0406711,24.024001 3.0408577,23.775018 c 4.09e-4,-0.539196 0.2363272,-0.991267 0.6263606,-1.200208 0.342824,-0.183652 1.0278502,-0.187701 1.3632018,-0.0078 0.1411972,0.07566 1.8257884,1.789368 3.7435351,3.808276 l 3.4868138,3.670738 0.243584,-0.263384 0.243585,-0.263385 -2.7603146,-2.922053 c -2.9475681,-3.120273 -2.9665363,-3.14655 -2.8271917,-3.916009 0.1205544,-0.665706 0.9386284,-1.188749 1.6563635,-1.059004 0.3139463,0.0567 0.8464106,0.583901 5.2946828,5.241898 l 4.945633,5.17881 0.671069,-2.809063 c 0.369088,-1.544987 0.745631,-2.96361 0.836762,-3.152503 0.21826,-0.452373 0.729308,-0.87892 1.225478,-1.022832 1.084842,-0.31465 2.197974,0.370012 2.499344,1.537295 0.111339,0.431246 0.09303,0.544639 -0.447499,2.771501 -2.030834,8.366586 -2.589647,10.537882 -2.871798,11.15851 -1.121867,2.467676 -3.594591,3.989144 -6.22377,3.829473 z" />
    <path
       style="fill:currentColor;stroke-width:0.99999988"
       d="M 49.456874,44.187263 C 48.21402,43.864334 46.772042,42.913482 46.005487,41.911384 45.236964,40.906725 44.927678,40.096931 44.237504,37.282325 42.135486,28.710033 41.788923,27.260422 41.789381,27.04223 c 0.0011,-0.525927 0.207384,-0.999849 0.622273,-1.42965 0.671168,-0.695287 1.449036,-0.826795 2.286931,-0.386641 0.821037,0.431298 0.902542,0.620522 1.688936,3.921004 l 0.69312,2.908992 4.954056,-5.186505 c 4.463293,-4.672698 4.988636,-5.192634 5.303108,-5.248533 0.992076,-0.17635 1.835138,0.697507 1.651458,1.711805 -0.05609,0.309693 -0.435479,0.746056 -2.834562,3.260165 l -2.769812,2.902601 0.246635,0.266678 0.246633,0.266689 3.503772,-3.66716 c 1.927071,-2.016933 3.61519,-3.726852 3.75137,-3.799799 0.136184,-0.07292 0.4436,-0.132368 0.683151,-0.132025 0.771781,9.76e-4 1.295976,0.544746 1.297034,1.345167 2.58e-4,0.248983 -0.04659,0.545107 -0.104266,0.65804 -0.05767,0.112942 -1.694134,1.872199 -3.636574,3.909477 l -3.531704,3.704143 0.241214,0.244156 0.241217,0.244136 3.056264,-3.213605 c 1.680949,-1.767478 3.170682,-3.258659 3.310518,-3.313738 0.881818,-0.347319 1.689575,0.09855 1.911078,1.054967 0.151341,0.653457 0.03972,0.800212 -3.224693,4.239642 l -3.100647,3.266911 0.24266,0.251381 0.242662,0.251378 2.105953,-2.245604 c 1.231655,-1.313336 2.228189,-2.29852 2.400384,-2.373044 0.942473,-0.40795 1.932482,0.240002 1.933341,1.265338 1.8e-4,0.223136 -0.0453,0.498104 -0.1011,0.611039 -0.117334,0.237506 -1.55536,1.773461 -6.429638,6.867485 -3.770884,3.940887 -4.237108,4.347421 -5.513501,4.807587 -0.59983,0.216254 -0.888187,0.259444 -1.930238,0.289136 -0.885913,0.02522 -1.3758,-0.004 -1.76954,-0.10658 z" />
    <path
       style="fill:currentColor;stroke-width:0.99999988"
       d="m 15.526944,25.540707 c -1.339825,-1.388698 -2.420804,-2.568749 -2.402174,-2.622321 0.01864,-0.05358 0.564735,-0.678053 1.213566,-1.387693 0.648831,-0.709648 1.277393,-1.400606 1.396805,-1.535456 0.11941,-0.134869 2.604038,-2.876594 5.521395,-6.092758 5.778519,-6.370357 5.639182,-6.2393098 6.485068,-6.0991808 0.439071,0.072734 0.922275,0.417376 1.105189,0.7882869 0.31401,0.6367395 0.330773,0.5517471 -1.574788,7.9840309 -1.004404,3.917494 -1.868572,7.261361 -1.920371,7.430818 l -0.09418,0.308109 -0.306142,-0.278448 c -1.399401,-1.272853 -3.452161,-1.376226 -4.935086,-0.248546 -0.883137,0.671582 -1.30606,1.440131 -1.683874,3.060003 -0.138681,0.594595 -0.278519,1.111902 -0.310752,1.149568 -0.03225,0.03764 -1.154828,-1.067724 -2.494656,-2.456413 z" />
    <path
       style="fill:currentColor;stroke-width:0.99999988"
       d="m 47.839459,26.963523 c -0.310166,-1.402637 -0.649489,-2.149191 -1.26176,-2.776058 -1.469252,-1.50424 -3.845133,-1.588723 -5.339791,-0.189859 -0.19871,0.185979 -0.373656,0.321621 -0.388772,0.301453 -0.01512,-0.02014 -0.871577,-3.295213 -1.903259,-7.277844 C 37.670628,12.098321 37.0701,9.6274294 37.0701,9.3032576 c 0,-0.6123876 0.354849,-1.1580638 0.90004,-1.3840456 0.967297,-0.4009328 1.186788,-0.2549675 3.564032,2.370189 1.106734,1.222164 2.650195,2.920107 3.429921,3.773218 0.779723,0.853122 2.738848,3.010576 4.353613,4.794352 1.614765,1.783786 3.120819,3.443112 3.346784,3.687386 l 0.410848,0.444152 -2.441519,2.540564 c -1.342834,1.397323 -2.46587,2.540576 -2.495639,2.540576 -0.02976,0 -0.164194,-0.497756 -0.298721,-1.106126 z" />
    <path
       style="fill:currentColor;stroke-width:0.99999988"
       d="m 32.146783,8.2321318 c -20.801228,38.1681612 -10.400614,19.0840812 0,0 z" />
    <circle
       style="fill:currentColor"
       cx="33.137222"
       cy="4.778264"
       r="3.7041667" />
  </g>
</svg>
